<?xml version="1.0" encoding="UTF-8"?>
<svg width="190mm" height="80mm" version="1.1" viewBox="0 0 38 16" xmlns="http://www.w3.org/2000/svg">
 <g transform="matrix(.050305 0 0 .050305 22.003 2.8424)" fill="none" stroke="#000" stroke-linecap="round" stroke-linejoin="round" stroke-width="8">
  <path d="m35.39 23.65 33.216 31.203 2.684-16.105c6.648-0.154 32.343 15.851 21.976 42.443m20.802 0c6.378-36.357-20.335-58.712-39.591-63.581l1.678-13.253-40.765 19.293"/>
  <path d="m88.36 106.23-33.216-31.203-2.684 16.105c-6.648 0.154-32.343-15.851-21.976-42.443m-20.802 0c-6.378 36.357 20.335 58.712 39.591 63.581l-1.678 13.253 40.765-19.293"/>
 </g>
 <g stroke-width=".26458">
  <text x="28.409382" y="8.3570576" font-family="'Fraunces 144pt SuperSoft'" font-size="8.8194px" font-weight="900" style="font-variant-caps:normal;font-variant-east-asian:normal;font-variant-ligatures:normal;font-variant-numeric:normal;line-height:1.25" xml:space="preserve"><tspan x="28.409382" y="8.3570576" font-family="'Fraunces 144pt SuperSoft'" font-size="8.8194px" font-weight="900" stroke-width=".26458" style="font-variant-caps:normal;font-variant-east-asian:normal;font-variant-ligatures:normal;font-variant-numeric:normal"/></text>
  <text x="1.6748664" y="8.4328375" font-family="'Fraunces 144pt SuperSoft'" font-size="8.8194px" font-weight="900" style="font-variant-caps:normal;font-variant-east-asian:normal;font-variant-ligatures:normal;font-variant-numeric:normal;line-height:1.25" xml:space="preserve"><tspan x="1.6748664" y="8.4328375" font-family="'Fraunces 144pt SuperSoft'" font-size="8.8194px" font-weight="900" stroke-width=".26458" style="font-variant-caps:normal;font-variant-east-asian:normal;font-variant-ligatures:normal;font-variant-numeric:normal"/></text>
  <text x="30.976011" y="94.718987" font-family="sans-serif" font-size="4.2333px" style="line-height:1.25" xml:space="preserve"><tspan x="30.976011" y="94.718987" stroke-width=".26458"/></text>
  <text x="15.006089" y="157.33025" font-family="sans-serif" font-size="4.2333px" style="line-height:1.25" xml:space="preserve"><tspan x="15.006089" y="157.33025" stroke-width=".26458"/></text>
 </g>
 <path transform="scale(.26458)" d="m46.68 8.9219c-1.1111 0-1.9884 0.30039-2.6328 0.90039-0.63333 0.6-0.94922 1.4114-0.94922 2.4336 0 1.0222 0.31589 1.8336 0.94922 2.4336 0.64444 0.6 1.5217 0.89844 2.6328 0.89844 1.1111 0 1.9839-0.29844 2.6172-0.89844 0.64444-0.6 0.9668-1.4114 0.9668-2.4336 0-1.0222-0.32235-1.8336-0.9668-2.4336-0.63333-0.6-1.5061-0.90039-2.6172-0.90039zm35.234 3.6504c-1.0111 0-1.9388 0.33785-2.7832 1.0156-0.83333 0.66667-1.5174 1.7345-2.0508 3.2012l-0.01758 0.01563c-0.66667-0.12222-1.3818-0.18164-2.1484-0.18164-2.5778 0-4.5733 0.5549-5.9844 1.666-1.4111 1.1111-2.1172 2.6111-2.1172 4.5 0 1.2667 0.43412 2.3655 1.3008 3.2988 0.86667 0.92222 2.1451 1.5624 3.834 1.918-1.4444 0.21111-2.4619 0.63876-3.0508 1.2832-0.57778 0.64444-0.86719 1.3505-0.86719 2.1172 0 0.53333 0.1447 1.0269 0.43359 1.4824 0.3 0.45556 0.83294 0.85026 1.5996 1.1836-1.2778 0.15556-2.2054 0.48242-2.7832 0.98242-0.57778 0.51111-0.86524 1.1403-0.86524 1.8848 0 1.0333 0.58785 1.8053 1.7656 2.3164 1.1889 0.52222 3.134 0.7832 5.834 0.7832 3.3222 1e-6 5.7434-0.48902 7.2656-1.4668 1.5333-0.96667 2.3008-2.3833 2.3008-4.25 0-1.4333-0.45608-2.5167-1.3672-3.25-0.91111-0.74444-2.5558-1.2509-4.9336-1.5176-1.1222-0.13333-1.9446-0.24314-2.4668-0.33203-0.51111-0.1-0.83798-0.19431-0.98242-0.2832-0.13333-0.1-0.19922-0.20078-0.19922-0.30078 0-0.13333 0.07687-0.26706 0.23242-0.40039 0.31111 0.02222 0.627 0.0332 0.94922 0.0332 1.5222 0 2.8446-0.24353 3.9668-0.73242 1.1333-0.5 2.0125-1.1951 2.6348-2.084 0.63333-0.9 0.94922-1.9504 0.94922-3.1504 0-1.0556-0.3049-2.0316-0.91602-2.9316-0.61111-0.9-1.5168-1.5951-2.7168-2.084 0.14444-0.27778 0.29366-0.46641 0.44922-0.56641 0.15556-0.1 0.32869-0.15039 0.51758-0.15039 0.35556 0 0.64948 0.11628 0.88281 0.34961s0.48785 0.47235 0.76562 0.7168c0.27778 0.23333 0.65699 0.34961 1.1348 0.34961 0.6 0 1.078-0.23902 1.4336-0.7168 0.36667-0.48889 0.54883-1.1491 0.54883-1.9824 0-0.88889-0.22157-1.562-0.66602-2.0176-0.44444-0.46667-1.0717-0.69922-1.8828-0.69922zm-69.234 4.0332c-0.26667 0-0.58255 0.05039-0.94922 0.15039-0.35556 0.1-0.82261 0.27765-1.4004 0.5332l-2.5508 1.1328c-0.47778 0.21111-0.81111 0.43268-1 0.66602-0.18889 0.22222-0.2832 0.49614-0.2832 0.81836 0 0.48889 0.24549 0.89458 0.73438 1.2168l0.15039 0.09961c0.18889 0.12222 0.32066 0.27144 0.39844 0.44922 0.088889 0.17778 0.13477 0.48268 0.13477 0.91602v12.617c0 0.54444-0.032943 0.91072-0.099609 1.0996-0.055555 0.2-0.14536 0.35117-0.26758 0.45117l-0.16602 0.15039c-0.22222 0.2-0.39987 0.39961-0.5332 0.59961-0.12222 0.2-0.18359 0.46098-0.18359 0.7832 0 0.42222 0.12079 0.74909 0.36523 0.98242 0.25556 0.24444 0.59536 0.36719 1.0176 0.36719h6.0508c0.42222 0 0.75556-0.12274 1-0.36719 0.25556-0.24444 0.38281-0.57131 0.38281-0.98242 0-0.32222-0.06784-0.58967-0.20117-0.80078-0.12222-0.2-0.2934-0.39314-0.51562-0.58203l-0.16602-0.15039c-0.12222-0.11111-0.21654-0.26228-0.2832-0.45117-0.05556-0.18889-0.08398-0.55517-0.08398-1.0996v-3.5156c0.77778 0.41111 1.6725 0.61524 2.6836 0.61524 2.1778 0 3.9388-0.72609 5.2832-2.1816 1.3556-1.4667 2.0332-3.528 2.0332-6.1836 0-2.2444-0.53294-4.0293-1.5996-5.3516-1.0556-1.3222-2.4393-1.9824-4.1504-1.9824-0.9 0-1.7224 0.17765-2.4668 0.5332s-1.4331 0.86202-2.0664 1.5176v-0.66797c0-0.41111-0.1053-0.74444-0.31641-1-0.21111-0.25556-0.52895-0.38281-0.95117-0.38281zm21.051 0c-1.7556 0-3.2226 0.20608-4.4004 0.61719-1.1778 0.4-2.0615 0.92196-2.6504 1.5664-0.58889 0.64444-0.88281 1.3266-0.88281 2.0488 0 0.71111 0.22157 1.2725 0.66602 1.6836 0.44444 0.4 1.146 0.60156 2.1016 0.60156 2.1111 0 3.166-0.92314 3.166-2.7676v-0.7832c0-0.21111 0.08333-0.37326 0.25-0.48438 0.16667-0.12222 0.3553-0.18164 0.56641-0.18164 0.63333 0 0.94922 0.4102 0.94922 1.2324v3.5508c-0.38889-0.05556-0.81654-0.08398-1.2832-0.08398-2.1556 0-3.8487 0.42313-5.082 1.2676-1.2222 0.84444-1.834 2.0266-1.834 3.5488 0 1.1 0.38824 2.0057 1.166 2.7168 0.77778 0.71111 1.8566 1.0664 3.2344 1.0664 0.95556 0 1.8503-0.16667 2.6836-0.5 0.83333-0.34444 1.478-0.82248 1.9336-1.4336 0.25556 0.57778 0.70968 1.0448 1.3652 1.4004 0.65556 0.35556 1.412 0.5332 2.2676 0.5332 0.82222 0 1.5263-0.16667 2.1152-0.5 0.6-0.33333 1.0625-0.75451 1.3848-1.2656s0.48242-1.0286 0.48242-1.5508c0-0.27778-0.06137-0.5168-0.18359-0.7168-0.12222-0.21111-0.2934-0.31641-0.51562-0.31641-0.08889 0-0.17222 0.01745-0.25 0.05078-0.06667 0.02222-0.12804 0.0487-0.18359 0.08203-0.06667 0.04444-0.13902 0.08385-0.2168 0.11719-0.06667 0.03333-0.15 0.05078-0.25 0.05078-0.2 0-0.33824-0.06137-0.41602-0.18359-0.066666-0.13333-0.10156-0.27352-0.10156-0.41797v-6.5156c0-1.3778-0.47609-2.4611-1.4316-3.25-0.95556-0.78889-2.5059-1.1836-4.6504-1.1836zm14.916 0c-0.27778 0-0.57817 0.04392-0.90039 0.13281-0.32222 0.07778-0.76536 0.23346-1.332 0.4668l-2.9844 1.2168c-0.47778 0.2-0.81111 0.41706-1 0.65039-0.18889 0.23333-0.2832 0.51176-0.2832 0.83398 0 0.48889 0.24549 0.89458 0.73438 1.2168l0.14844 0.09961c0.18889 0.12222 0.32261 0.27144 0.40039 0.44922 0.08889 0.17778 0.13281 0.48268 0.13281 0.91602v4.8516c0 0.53333-0.03294 0.89961-0.09961 1.0996-0.05556 0.18889-0.1434 0.33811-0.26562 0.44922l-0.16797 0.15039c-0.47778 0.35556-0.7168 0.81615-0.7168 1.3828 0 0.9 0.46254 1.3516 1.3848 1.3516h6.0488c0.42222 0 0.75556-0.11823 1-0.35156 0.25556-0.24444 0.38476-0.57778 0.38476-1 0-0.32222-0.06784-0.58772-0.20117-0.79883-0.12222-0.21111-0.2934-0.40621-0.51563-0.58398l-0.16797-0.15039c-0.12222-0.11111-0.21654-0.26033-0.2832-0.44922-0.05556-0.2-0.08203-0.56628-0.08203-1.0996v-9.4512c0-0.41111-0.10725-0.74444-0.31836-1-0.2-0.25556-0.5049-0.38281-0.91602-0.38281zm9.4512 0c-0.41111 0-1.0558 0.17765-1.9336 0.5332l-3.1348 1.2832c-0.46667 0.18889-0.8 0.40595-1 0.65039-0.18889 0.23333-0.2832 0.51176-0.2832 0.83398 0 0.48889 0.24549 0.89458 0.73438 1.2168l0.15039 0.09961c0.18889 0.12222 0.32066 0.27144 0.39844 0.44922 0.08889 0.17778 0.13476 0.48268 0.13476 0.91602v4.8516c0 0.54444-0.03489 0.91072-0.10156 1.0996-0.05556 0.18889-0.1434 0.33811-0.26562 0.44922l-0.16602 0.15039c-0.23333 0.18889-0.41098 0.3885-0.5332 0.59961-0.12222 0.2-0.18359 0.46098-0.18359 0.7832 1e-6 0.42222 0.12079 0.75556 0.36524 1 0.25556 0.23333 0.59536 0.35156 1.0176 0.35156h7.5508c0.46667 0 0.82196-0.12274 1.0664-0.36719 0.24444-0.25556 0.36524-0.58438 0.36524-0.98438 0-0.35556-0.08785-0.65399-0.26562-0.89844-0.17778-0.25556-0.46072-0.41771-0.84961-0.48438l-0.88476-0.15039c-0.53333-0.08889-0.79883-0.60438-0.79883-1.5488v-4.1348c0-1.6556 0.30039-2.4824 0.90039-2.4824 0.35556 0 0.5332 0.26745 0.5332 0.80078v0.68164c1e-6 0.7 0.2151 1.2504 0.64844 1.6504s1.0845 0.59961 1.9512 0.59961c0.82222-1e-6 1.4824-0.30942 1.9824-0.93164 0.51111-0.63333 0.76758-1.6224 0.76758-2.9668 0-1.3556-0.27843-2.3665-0.83398-3.0332-0.54444-0.67778-1.3099-1.0176-2.2988-1.0176-0.86667 0-1.6341 0.26745-2.3008 0.80078-0.65556 0.53333-1.162 1.3667-1.5176 2.5l-0.21484-1.7168c-0.07778-0.63333-0.19601-1.0565-0.35156-1.2676-0.15556-0.21111-0.37066-0.31641-0.64844-0.31641zm15.91 2.3867c0.28125 0.03958 0.57305 0.23737 0.87305 0.5957 0.41111 0.46667 0.76641 1.3065 1.0664 2.5176 0.3 1.2111 0.38333 2.1213 0.25 2.7324-0.13333 0.61111-0.38333 0.96189-0.75 1.0508-0.36667 0.08889-0.75686-0.10621-1.168-0.58398-0.4-0.47778-0.74883-1.3156-1.0488-2.5156-0.3-1.2111-0.38333-2.1233-0.25-2.7344 0.13333-0.61111 0.38333-0.95994 0.75-1.0488 0.09167-0.02222 0.18359-0.02687 0.27734-0.01367zm-58.611 1.4805c0.67778 0 1.2346 0.33333 1.668 1 0.43333 0.66667 0.64844 1.739 0.64844 3.2168 0 1.3778-0.19314 2.4262-0.58203 3.1484-0.38889 0.71111-0.89987 1.0684-1.5332 1.0684-0.53333 0-0.98941-0.1951-1.3672-0.58398v-7.4336c0.34444-0.27778 0.73268-0.41602 1.166-0.41602zm17.467 5.0332c0.24444 0 0.45504 0.03941 0.63281 0.11719v2.9824c-0.16667 0.05556-0.33785 0.08398-0.51562 0.08398-0.91111 0-1.3672-0.52196-1.3672-1.5664 0-0.48889 0.11176-0.87908 0.33398-1.168 0.23333-0.3 0.53824-0.44922 0.91602-0.44922zm38.768 9.0332c0.6 0.13333 1.2886 0.23863 2.0664 0.31641 1.2889 0.12222 2.2495 0.25595 2.8828 0.40039 0.63333 0.14444 1.05 0.30013 1.25 0.4668 0.21111 0.16667 0.31641 0.34883 0.31641 0.54883 0 0.24444-0.1951 0.43954-0.58398 0.58398-0.37778 0.15556-1.2111 0.23242-2.5 0.23242-1.5 0-2.4935-0.13177-2.9824-0.39844-0.48889-0.26667-0.73438-0.62196-0.73438-1.0664 0-0.38889 0.09627-0.75065 0.28516-1.084z" style="font-variant-caps:normal;font-variant-east-asian:normal;font-variant-ligatures:normal;font-variant-numeric:normal"/>
 <path transform="scale(.26458)" d="m126.51 6.4199c-0.27778 0-0.57817 0.043924-0.90039 0.13281-0.32222 0.077778-0.76732 0.23346-1.334 0.4668l-2.9824 1.2168c-0.47778 0.2-0.81112 0.4151-1 0.64844-0.18889 0.23333-0.28321 0.51176-0.28321 0.83398 0 0.48889 0.24354 0.89458 0.73242 1.2168l0.15039 0.09961c0.18889 0.12222 0.32262 0.27339 0.4004 0.45117 0.0889 0.17778 0.13281 0.48268 0.13281 0.91602v14.75c0 0.54444-0.0329 0.91719-0.0996 1.1172-0.0556 0.18889-0.14536 0.33359-0.26758 0.43359l-0.16602 0.14844c-0.23333 0.18889-0.41098 0.39045-0.5332 0.60156-0.12222 0.2-0.18359 0.46098-0.18359 0.7832 0 0.42222 0.12274 0.75556 0.36719 1 0.25555 0.23333 0.5934 0.34961 1.0156 0.34961h6.0176c0.82222 0 1.2324-0.44961 1.2324-1.3496 0-0.46667-0.17765-0.86137-0.5332-1.1836l-0.19922-0.18359c-0.13333-0.12222-0.22313-0.29536-0.26758-0.51758-0.0444-0.22222-0.0664-0.62144-0.0664-1.1992v-5.5508c0.48889-0.44444 0.97791-0.66602 1.4668-0.66602 0.45556 0 0.78438 0.16215 0.98438 0.48438 0.2 0.31111 0.33823 0.79366 0.41601 1.4492l0.5 4.4492c0.0556 0.51111 0.0446 0.86641-0.0332 1.0664-0.0667 0.2-0.16745 0.36215-0.30078 0.48438l-0.19922 0.18359c-0.36667 0.3-0.55078 0.6947-0.55078 1.1836 0 0.9 0.41215 1.3496 1.2344 1.3496h6.0664c0.42222-1e-6 0.75555-0.11628 1-0.34961 0.25555-0.24444 0.38281-0.57778 0.38281-1 0-0.32222-0.0659-0.5832-0.19922-0.7832-0.13333-0.2-0.31098-0.40156-0.5332-0.60156l-0.16797-0.14844c-0.11111-0.11111-0.18798-0.26228-0.23242-0.45117-0.0333-0.2-0.0773-0.56628-0.13281-1.0996l-0.6836-6.7324c-0.13333-1.3-0.48411-2.3065-1.0508-3.0176-0.55555-0.72222-1.4438-1.084-2.666-1.084-0.81112 0-1.6335 0.20608-2.4668 0.61719s-1.7784 1.1217-2.834 2.1328v-11.266c0-0.41111-0.10529-0.74444-0.3164-1-0.2-0.25556-0.50491-0.38281-0.91602-0.38281zm-12.701 6.0996c-0.37778 0-0.74405 0.12079-1.0996 0.36524-0.34444 0.23333-0.69327 0.5796-1.0488 1.0352l-1.3008 1.6816c-0.31111 0.41111-0.55464 0.68954-0.73242 0.83398s-0.35738 0.2168-0.53516 0.2168h-0.2832c-0.46667 0-0.84844 0.13824-1.1484 0.41602-0.3 0.27778-0.45117 0.63307-0.45117 1.0664 0 0.33333 0.0439 0.61823 0.13281 0.85156 0.0778 0.23333 0.26836 0.42648 0.56836 0.58203l0.31641 0.16797c0.27778 0.14444 0.44444 0.31562 0.5 0.51562 0.0667 0.2 0.0996 0.48294 0.0996 0.84961v5.3672c0 1.9 0.42118 3.2837 1.2656 4.1504 0.84445 0.86667 2.1403 1.3008 3.8848 1.3008 1.0333 0 1.961-0.22352 2.7832-0.66797 0.82222-0.45556 1.4714-1.0434 1.9492-1.7656 0.48889-0.73333 0.73438-1.5182 0.73438-2.3516 0-0.76667-0.20608-1.1484-0.61719-1.1484-0.24445 0-0.47248 0.10981-0.6836 0.33203-0.21111 0.21111-0.44366 0.42817-0.69921 0.65039-0.25556 0.22222-0.5734 0.33398-0.95118 0.33398-0.9 0-1.3496-0.65569-1.3496-1.9668v-5.5332h1.416c1.0778 0 1.8517-0.18863 2.3184-0.56641 0.46667-0.38889 0.69922-0.86241 0.69922-1.418 0-0.77778-0.45608-1.166-1.3672-1.166h-3.0664v-2.5664c1e-5 -1.0444-0.44509-1.5664-1.334-1.5664z" style="font-variant-caps:normal;font-variant-east-asian:normal;font-variant-ligatures:normal;font-variant-numeric:normal"/>
 <path d="m8.4332 12.402c-0.26706 0-0.47625 0.07844-0.62733 0.23486-0.15032 0.15566-0.22559 0.37313-0.22559 0.6524 0 0.27851 0.075274 0.49598 0.22559 0.6524 0.15108 0.15566 0.36027 0.23349 0.62733 0.23349 0.12209 0 0.23681-0.01601 0.3444-0.04807 0.10759-0.03281 0.20602-0.08088 0.2953-0.14422v-0.73378h-0.60673v0.18988h0.3777v0.45908c-0.05112 0.02976-0.10862 0.05177-0.17271 0.06627-0.064094 0.01373-0.13708 0.0206-0.21873 0.0206-0.20907 0-0.36614-0.05837-0.47144-0.17512-0.10454-0.11674-0.15692-0.29011-0.15692-0.52054 0-0.2312 0.052382-0.40517 0.15692-0.52192 0.1053-0.11674 0.26237-0.17512 0.47144-0.17512 0.10606 0 0.20739 0.01831 0.30354 0.05494 0.09614 0.03662 0.18683 0.09095 0.27229 0.16344v-0.24585c-0.0847-0.05342-0.17741-0.09408-0.27813-0.12155-0.099958-0.02747-0.20552-0.0412-0.31693-0.0412zm1.7556 0c-0.24036 0-0.43264 0.08073-0.57686 0.24173-0.14345 0.16024-0.21529 0.37541-0.21529 0.64553s0.07184 0.48529 0.21529 0.64553c0.14421 0.16024 0.3365 0.24036 0.57686 0.24036 0.23959 0 0.431-0.08012 0.57445-0.24036 0.14345-0.161 0.21529-0.37618 0.21529-0.64553 0-0.27012-0.07184-0.48529-0.21529-0.64553-0.14345-0.161-0.33486-0.24173-0.57445-0.24173zm10.283 0c-0.26706 0-0.47625 0.07844-0.62733 0.23486-0.15032 0.15566-0.22559 0.37313-0.22559 0.6524 0 0.27851 0.07527 0.49598 0.22559 0.6524 0.15108 0.15566 0.36027 0.23349 0.62733 0.23349 0.12209 0 0.23681-0.01601 0.3444-0.04807 0.10759-0.03281 0.20602-0.08088 0.29529-0.14422v-0.73378h-0.60673v0.18988h0.3777v0.45908c-0.05112 0.02976-0.10862 0.05177-0.17271 0.06627-0.0641 0.01373-0.13708 0.0206-0.21873 0.0206-0.20907 0-0.36614-0.05837-0.47144-0.17512-0.10454-0.11674-0.15692-0.29011-0.15692-0.52055 0-0.2312 0.05239-0.40517 0.15692-0.52192 0.1053-0.11674 0.26237-0.17512 0.47144-0.17512 0.10606 0 0.20739 0.01831 0.30354 0.05494 0.09614 0.03662 0.18683 0.09095 0.27229 0.16344v-0.24585c-0.0847-0.05342-0.17741-0.09408-0.27813-0.12155-0.09996-0.02747-0.20552-0.0412-0.31693-0.0412zm3.8492 0c-0.24036 0-0.43264 0.08073-0.57686 0.24173-0.14345 0.16024-0.21529 0.37541-0.21529 0.64553s0.07184 0.48529 0.21529 0.64553c0.14422 0.16024 0.3365 0.24036 0.57686 0.24036 0.2396 0 0.431-0.08012 0.57445-0.24036 0.14345-0.161 0.21529-0.37618 0.21529-0.64553 0-0.27012-0.07184-0.48529-0.21529-0.64553-0.14345-0.161-0.33486-0.24173-0.57445-0.24173zm-12.236 0.0309v1.7089h0.23143v-0.68674h0.29049c0.19152 0 0.33635-0.04323 0.43402-0.12945 0.09843-0.08622 0.14765-0.21354 0.14765-0.38217 0-0.16711-0.04922-0.29388-0.14765-0.38011-0.09767-0.08699-0.24249-0.13048-0.43402-0.13048zm1.7045 0-0.6524 1.7089h0.24379l0.15554-0.43848h0.77017l0.15589 0.43848h0.24036l-0.65137-1.7089zm1.1626 0v1.7089h0.23143v-1.7089zm0.69154 0v1.7089h0.23109v-0.7221h0.25169c0.09156 0 0.16367 0.01858 0.21632 0.05597 0.05342 0.03739 0.10835 0.1132 0.16482 0.22765l0.21872 0.43848h0.24826l-0.23452-0.46698c-0.04731-0.09614-0.0945-0.17168-0.14181-0.22662-0.04654-0.05494-0.09462-0.09069-0.14421-0.10747 0.09538-0.02747 0.16775-0.07669 0.21735-0.14765 0.05036-0.07096 0.07554-0.16024 0.07554-0.26783 2e-6 -0.16482-0.04807-0.28816-0.14421-0.36981-0.09614-0.08164-0.24177-0.12258-0.43711-0.12258zm1.6286 0v1.7089h0.23109v-1.7089zm0.6912 0v1.7089h0.22456v-1.4294l0.75747 1.4294h0.31143v-1.7089h-0.22422v1.4298l-0.75781-1.4298zm4.3151 0v1.7089h0.23109v-0.81618h0.67781v-0.19435h-0.67781v-0.50372h0.75094v-0.19469zm3.1933 0v1.7089h0.23108v-0.7221h0.25203c0.09156 0 0.16367 0.01858 0.21632 0.05597 0.05342 0.03739 0.10835 0.1132 0.16482 0.22765l0.21838 0.43848h0.2486l-0.23486-0.46698c-0.04731-0.09614-0.0945-0.17168-0.14181-0.22662-0.04654-0.05494-0.09462-0.09069-0.14421-0.10747 0.09538-0.02747 0.16775-0.07669 0.21735-0.14765 0.05036-0.07096 0.07554-0.16024 0.07554-0.26783 0-0.16482-0.04807-0.28816-0.14421-0.36981-0.09614-0.08164-0.24177-0.12258-0.43711-0.12258zm2.8146 0-0.6524 1.7089h0.24379l0.15554-0.43848h0.77017l0.15589 0.43848h0.24036l-0.65137-1.7089zm1.1626 0v1.7089h1.0634v-0.19469h-0.83198v-1.5143zm1.3062 0v1.7089h1.0631v-0.19469h-0.83198v-1.5143zm-20.567 0.15692c0.16787-2e-6 0.30064 0.06268 0.39831 0.18782 0.09843 0.12514 0.14765 0.29568 0.14765 0.51162 0 0.21518-0.04922 0.38511-0.14765 0.51024-0.09767 0.12514-0.23044 0.18782-0.39831 0.18782s-0.30152-0.06269-0.40071-0.18782c-0.09843-0.12514-0.14765-0.29507-0.14765-0.51024 0-0.21594 0.04922-0.38648 0.14765-0.51162 0.09919-0.12514 0.23284-0.18782 0.40071-0.18782zm14.132 0c0.16787-2e-6 0.30064 0.06268 0.39831 0.18782 0.09843 0.12514 0.14765 0.29568 0.14765 0.51162 0 0.21518-0.04922 0.38511-0.14765 0.51024-0.09767 0.12514-0.23044 0.18782-0.39831 0.18782s-0.30152-0.06269-0.40071-0.18782c-0.09843-0.12514-0.14765-0.29507-0.14765-0.51024 0-0.21594 0.04922-0.38648 0.14765-0.51162 0.09919-0.12514 0.23284-0.18782 0.40071-0.18782zm-12.004 0.03331h0.29049c0.10759 0 0.19087 0.02773 0.24963 0.08344 0.05875 0.0557 0.08825 0.13468 0.08825 0.23692 0 0.10301-0.0295 0.18225-0.08825 0.23796-0.05875 0.0557-0.14204 0.08378-0.24963 0.08378h-0.29049zm3.5583 0h0.29083c0.1114 0 0.19522 0.02545 0.25169 0.07657 0.05723 0.05036 0.08584 0.12563 0.08584 0.22559 0 0.09996-0.02861 0.17576-0.08584 0.22765-0.05647 0.05112-0.14028 0.07657-0.25169 0.07657h-0.29083zm9.8282 0h0.29083c0.1114 0 0.19522 0.02545 0.25169 0.07657 0.05723 0.05036 0.08584 0.12563 0.08584 0.22559 0 0.09996-0.02861 0.17576-0.08584 0.22765-0.05647 0.05112-0.14028 0.07657-0.25169 0.07657h-0.29083zm-11.783 0.03777 0.31452 0.85018h-0.62836zm14.497 0 0.31453 0.85018h-0.62836z" stroke-width=".1758" style="font-variant-caps:normal;font-variant-east-asian:normal;font-variant-ligatures:normal;font-variant-numeric:normal"/>
 <path d="m2.3897 13.229h4.2703" fill="none" stroke="#000" stroke-width=".19406px"/>
 <path d="m32.45 13.229h3.8956" fill="none" stroke="#000" stroke-width=".18536px"/>
</svg>
