<svg xmlns="http://www.w3.org/2000/svg" xmlns:xlink="http://www.w3.org/1999/xlink" width="718.11" height="302.362" viewBox="0 0 190 80" xmlns:v="https://vecta.io/nano"><defs><linearGradient xlink:href="#B" id="A" x1="275.895" y1="202.894" x2="200.474" y2="201.217"/><linearGradient id="B" gradientUnits="userSpaceOnUse"><stop offset="0"/><stop offset="1" stop-color="#fff"/></linearGradient><linearGradient xlink:href="#B" id="C" x1="174.894" y1="200.774" x2="249.224" y2="241.19"/><path id="D" d="M34.074 59.23c0-.099.056-.141.141-.141.155.014.325.014.508.014.663 0 .663-1.228 0-1.228-.72 0-1.087.099-1.849.099-.734 0-1.016-.113-1.75-.113-.649 0-.649 1.228 0 1.228l1.863-.085c.085 0 .141.071.141.155-.042 1.566-1.03 2.568-2.596 2.568-1.651.014-3.119-1.284-3.288-3.683-.169-2.258.734-3.711 2.187-3.979a3.07 3.07 0 0 1 .706-.071c1.002 0 1.792.48 2.201 1.468.212.437.564.621.875.621.649 0 1.199-.776.381-1.736-.663-.861-1.75-1.171-3.217-1.171-2.526 0-4.544 1.538-4.544 4.897 0 3.288 2.06 4.741 4.572 4.755 2.117 0 3.782-1.03 3.669-3.598z"/><path id="E" d="M70.382 54.855c0-.706.649-.663.649-1.143 0-.282-.24-.437-.875-.437h-.847c-.621 0-.875.155-.875.437 0 .48.677.437.677 1.143v6.449c0 .621-.677.55-.677 1.002 0 .296.24.409.762.423.198.028.381.028.564.028.169 0 .353 0 .508-.028.536-.028.776-.127.776-.423 0-.452-.663-.381-.663-1.002z"/><path id="F" d="M86.708 53.712c0 .48.677.437.677 1.143v6.449c0 .621-.677.55-.677 1.002 0 .296.24.423.762.423h.833c.536 0 .762-.127.762-.423 0-.452-.663-.381-.663-1.002v-6.025c0-.141.028-.212.085-.212.028 0 .085.042.141.141l3.965 5.884c.607.945 1.129 1.637 1.707 1.637h.776c.579-.014.734-.169.734-.437 0-.48-.663-.437-.663-1.143V54.7c0-.621.663-.55.663-1.002 0-.296-.226-.423-.762-.423h-.833c-.522 0-.762.127-.762.423 0 .452.677.381.677 1.002v6.011c0 .141-.028.212-.071.212s-.099-.042-.155-.141l-3.881-5.771c-.621-.974-1.058-1.736-1.665-1.736h-.776c-.621 0-.875.155-.875.437z"/><path id="G" d="M112.193 54.855v6.435c0 .621-.677.55-.677 1.002 0 .325.24.437.776.437h5.179c.917 0 1.397-.212 1.397-.691v-.141c0-.48-.282-.649-.72-.649-.706.056-.833.564-1.453.564h-2.596c-.466 0-.593-.409-.593-.804v-2.413a.14.14 0 0 1 .155-.155h2.582c.381 0 .381.621.804.621.325 0 .409-.254.437-.494.042-.325.042-.79 0-1.058-.028-.24-.113-.494-.437-.494-.423 0-.423.607-.804.607h-2.582a.14.14 0 0 1-.155-.155v-2.54c0-.395.085-.734.508-.734h2.582c.621 0 .748.508 1.453.564.437 0 .72-.169.72-.649v-.141c0-.48-.48-.691-1.397-.691h-4.981c-.635 0-.875.155-.875.437 0 .48.677.437.677 1.143z"/><path id="H" d="M169.392 56.952c-1.145 0-1.776.367-1.776.988 0 .649.632 1.016 1.776 1.016h13.459c1.145 0 1.776-.367 1.776-1.016 0-.621-.632-.988-1.776-.988z"/></defs><path d="M4.06 43.388c0 1.312.847 1.82 2.117 1.99 1.609.212 3.048.339 4.445.339s2.709-.127 4.106-.339c1.27-.212 2.117-.677 2.117-1.99 0-1.82-2.159-2.032-2.159-3.217v-3.556c0-.254.085-.381.254-.381.085 0 .169 0 .296.085 1.482.847 3.175 1.27 5.038 1.27 5.122 0 9.483-3.302 9.483-11.007s-4.784-11.007-9.906-11.007c-2.371 0-4.233.508-5.673 1.609-.169.127-.339.169-.508.169-.127 0-.296-.042-.423-.169-.931-.72-2.032-1.185-3.26-1.185H7.15c-2.159 0-3.09.974-3.09 2.159 0 2.032 2.159 2.498 2.159 4.36v17.611c0 1.185-2.159 1.439-2.159 3.26zm10.626-19.897c.296-2.709 1.397-3.81 2.794-3.895h.127c1.778 0 2.836 2.032 3.048 7.027.212 5.165-.635 7.239-2.54 7.324h-.127c-3.006 0-3.175-6.562-3.302-8.848zm24.172 14.097c2.54 0 4.53-.677 5.927-1.863.085-.085.212-.127.296-.127.127 0 .254.042.339.169 1.101 1.228 2.752 1.524 4.318 1.524 3.514 0 5.715-2.836 4.826-4.064-.762-1.016-1.863-.127-1.863-1.905v-8.509c0-5.673-5.08-7.239-10.287-7.239-4.953 0-9.991 1.609-9.991 4.995 0 2.117 1.947 3.217 3.768 3.217.889 0 1.736-.296 2.286-.804 1.439-1.355 2.159-4.022 3.937-4.022 1.482 0 1.82 1.185 1.82 3.387v1.016c0 .296-.169.508-.466.55-4.741.677-12.404 2.328-12.404 7.62 0 4.657 4.106 6.054 7.493 6.054zm1.439-7.027c.085-1.99 1.736-2.794 3.471-3.133.296 0 .466.042.466.381V32c0 .593-.804.974-1.482 1.058h-.296c-1.228 0-2.244-.931-2.159-2.498zM56.257 9.86c0 2.667 1.99 4.445 4.995 4.445s4.995-1.778 4.995-4.445-1.99-4.445-4.995-4.445-4.995 1.778-4.995 4.445zm9.737 10.329c0-2.752-1.778-4.191-4.699-4.191h-3.26c-1.82 0-2.667.974-2.667 2.159 0 2.032 2.159 2.498 2.159 4.36v9.356c0 1.185-2.159 1.397-2.159 3.217 0 1.312.847 1.82 2.117 1.99 1.609.212 3.048.339 4.445.339s2.709-.127 4.106-.339c1.27-.212 2.117-.677 2.117-1.99 0-1.82-2.159-2.032-2.159-3.217z"/><path d="M78.651 18.453c-.042.085-.085.169-.169.169s-.127-.085-.212-.169c-.804-1.439-2.625-2.455-4.276-2.455h-2.836c-2.159 0-3.09.974-3.09 2.159 0 2.032 2.159 2.498 2.159 4.36v9.356c0 1.185-2.159 1.397-2.159 3.217 0 1.312.847 1.82 2.117 1.99 1.609.212 3.048.339 4.445.339s2.709-.127 4.106-.339c1.27-.212 2.117-.677 2.117-1.99 0-1.82-2.159-2.032-2.159-3.217v-7.07c.085-1.058.296-1.99.804-2.159.085-.042.169-.042.254-.042 1.016 0 2.117 1.609 4.572 1.609 1.82 0 3.641-1.482 3.641-4.318s-1.99-4.318-4.953-4.318c-2.371 0-3.641 1.228-4.36 2.879zm15.663 14.69c.254.085.254.254 0 .339-2.286 1.016-5.292 3.217-4.657 5.249.508 1.524 4.868 1.609 6.9 1.609h.55c2.074 0 4.106 0 4.403.381.804 1.016-2.244 1.99-2.455 3.048-.212 1.016 2.117 2.582 5.207 2.582 3.979 0 7.197-4.191 6.773-7.578-.339-2.455-3.302-2.752-6.011-2.752-.847 0-1.651.042-2.371.042-2.286 0-5.122-.042-3.725-1.566a1.02 1.02 0 0 1 .72-.296c5.503-.127 11.599-2.963 11.599-9.313 0-4.445-3.26-7.493-7.324-8.678-.254-.085-.339-.296-.169-.466.55-.635 1.185-.804 1.863-.804.762 0 1.609.254 2.413.254a2.61 2.61 0 0 0 2.074-.931c1.947-2.201.423-5.673-2.455-6.223-.381-.085-.762-.085-1.101-.085-3.768 0-5.122 3.979-5.122 7.281 0 .254-.169.381-.423.381-.423-.042-.847-.042-1.27-.042-5.8 0-11.557 3.387-11.557 9.313 0 3.979 2.667 6.858 6.138 8.255zm4.487-13.758c.127 0 .212-.042.339-.042 1.566 0 2.455 2.117 2.921 5.249.635 3.937.381 5.715-1.27 6.011-.127.042-.296.042-.423.042-1.524 0-2.455-1.736-3.006-5.292-.55-3.429-.212-5.715 1.439-5.969zm44.466.934l1.016-.042c.254-.042.423.127.423.381v10.245c0 5.588 3.895 6.519 6.858 6.519 6.265 0 7.493-5.165 6.054-6.054-.212-.127-.423-.169-.635-.169-1.016 0-2.159 1.058-2.921 1.058-.55 0-.889-.508-.889-2.328v-9.61c0-.296.169-.339.423-.339.762.169 1.609.339 2.752.339 2.286 0 2.286-4.487 0-4.487a12.13 12.13 0 0 0-2.752.296c-.254 0-.423-.042-.423-.339v-5.715c0-.72-.296-1.355-1.016-1.355-.127 0-.296 0-.423.042-2.328.593-7.027 1.863-7.027 3.81v2.963c0 .296-.169.339-.423.339-.296-.042-.635-.042-1.016-.042-2.286 0-2.201 4.53 0 4.487zm17.653-8.551v19.939c0 1.185-2.159 1.397-2.159 3.217 0 1.312.847 1.82 2.117 1.99 1.524.212 2.921.339 4.36.339 1.312 0 2.667-.127 4.149-.339.847-.127 1.693-.72 1.693-2.117 0-1.905-1.693-2.117-1.693-3.387v-3.006c0-1.947 1.27-7.197 3.471-7.197 1.397 0 2.032 1.439 2.032 4.022v6.181c0 1.27-2.159 1.482-2.159 3.387 0 1.397.847 1.947 2.117 2.117 1.524.212 2.921.339 4.36.339 1.312 0 2.667-.127 4.149-.339.847-.127 1.693-.72 1.693-2.117 0-1.905-1.693-2.117-1.693-3.387v-8.975c0-4.53-2.794-7.027-7.324-7.027-2.455 0-4.487 1.143-6.011 2.921-.169.212-.339.296-.423.296-.127 0-.212-.169-.212-.508V9.439c0-2.752-2.625-4.191-4.699-4.191h-2.836c-2.159 0-3.09.974-3.09 2.159 0 2.032 2.159 2.498 2.159 4.36z"/><g transform="matrix(.264583 0 0 .264583 69.186406 -30.809123)" fill-rule="evenodd" stroke="#000" stroke-width="4" stroke-linejoin="round"><path d="M194.254 177.73l33.216 31.203 2.684-16.105c6.648-.154 32.343 15.851 21.976 42.443h20.802c6.378-36.357-20.335-58.712-39.591-63.581l1.678-13.253z" fill="url(#A)"/><path d="M247.224 260.315l-33.216-31.203-2.684 16.105c-6.648.154-32.343-15.851-21.976-42.443h-20.802c-6.378 36.357 20.335 58.712 39.591 63.581l-1.678 13.253z" fill="url(#C)"/></g><use xlink:href="#D"/><path d="M36.177 58.073c0 3.358 2.004 4.755 4.53 4.755s4.487-1.397 4.487-4.755-1.961-4.897-4.487-4.897-4.53 1.538-4.53 4.897zm1.439.212c-.226-2.738.96-4.191 2.766-4.318.085 0 .155-.014.24-.014 1.665 0 2.935 1.284 3.133 3.895.226 2.752-.945 4.12-2.723 4.233-.099.014-.183.014-.282.014-1.665 0-2.921-1.214-3.133-3.81zm12.799-4.573c0 .48.677.423.677 1.129v6.505c0 .607-.677.536-.677.974 0 .296.24.409.762.409h1.072c.48-.014.72-.127.72-.423 0-.452-.607-.381-.607-1.002v-1.609a.14.14 0 0 1 .155-.155h1.58c2.314 0 3.979-.833 3.979-3.09s-1.679-3.175-3.979-3.175H51.29c-.621 0-.875.155-.875.437zm1.947 4.77V55.01c0-.48.127-.931.635-.931h1.016c1.566 0 2.639.72 2.639 2.357 0 1.665-1.058 2.3-2.639 2.3h-1.397c-.155 0-.254-.099-.254-.254zm7.662 1.623c.028-.085.113-.141.212-.141h3.923c.099 0 .183.056.212.141l.423 1.002c.381.945.677 1.623 1.383 1.623h.522c.254 0 .607-.141.607-.452 0-.452-.762-.522-1.072-1.256l-2.921-7.084c-.226-.55-.452-.663-.734-.663h-.452c-.522 0-.706.409-.889.917l-2.695 7.112c-.254.677-.889.522-.889.988 0 .452.607.494 1.143.494.55 0 1.27-.014 1.27-.437 0-.452-.762-.325-.508-.974zm.522-.988c-.099 0-.127-.056-.099-.141l1.58-4.233c.028-.071.056-.099.085-.099s.042.028.071.099l1.736 4.233c.042.085 0 .141-.099.141z"/><use xlink:href="#E"/><path d="M73.543 54.841v6.505c0 .607-.677.536-.677.974 0 .296.24.409.762.409H74.7c.48-.014.72-.127.72-.437 0-.466-.607-.381-.607-1.016v-1.905a.14.14 0 0 1 .155-.155h1.228c.155 0 .282.169.423.339l1.679 2.103c.706.903 1.03 1.115 1.609 1.115.564 0 .974-.226.974-.452 0-.367-.691-.268-1.496-1.199l-1.595-1.877c-.113-.113-.085-.212.071-.24 1.637-.254 2.667-1.03 2.667-2.709 0-2.145-1.679-3.02-3.979-3.02H73.74c-.621 0-.875.155-.875.437 0 .48.677.423.677 1.129zm1.27 3.316v-3.161c0-.409.099-.776.48-.847.169-.042.875-.071 1.171-.071 1.566 0 2.639.663 2.639 2.201s-1.058 2.131-2.639 2.131h-1.355c-.183 0-.296-.085-.296-.254z"/><use xlink:href="#E" x="13.843"/><use xlink:href="#F"/><use xlink:href="#D" x="71.684"/><use xlink:href="#G"/><use xlink:href="#F" x="33.543"/><use xlink:href="#D" x="105.227"/><use xlink:href="#E" x="73.081"/><use xlink:href="#F" x="59.239"/><use xlink:href="#G" x="45.367"/><use xlink:href="#H"/><use xlink:href="#H" x="-163.643" y="0.083"/></svg>